<svg xmlns:dc="http://purl.org/dc/elements/1.1/" xmlns:cc="http://creativecommons.org/ns#" xmlns:rdf="http://www.w3.org/1999/02/22-rdf-syntax-ns#" xmlns:svg="http://www.w3.org/2000/svg" xmlns="http://www.w3.org/2000/svg" viewBox="0 0 638.40002 204.44" height="204.44" width="638.40002" xml:space="preserve" id="svg2" version="1.1" xmlns:xlink="http://www.w3.org/1999/xlink">
 <metadata id="metadata8">
  <rdf:RDF>
   <cc:Work rdf:about="">
    <dc:format>
     image/svg+xml
    </dc:format>
    <dc:type rdf:resource="http://purl.org/dc/dcmitype/StillImage">
    </dc:type>
   </cc:Work>
  </rdf:RDF>
 </metadata>
 <defs id="defs6">
 </defs>
 <g transform="matrix(1.3333333,0,0,-1.3333333,0,204.44)" id="g10">
  <g transform="scale(0.1)" id="g12">
   <path id="path14" style="fill:#ffffff;fill-opacity:1;fill-rule:nonzero;stroke:none" d="m 1152.92,830.441 c 0,147.969 -135.63,360.669 -397.662,360.669 -237.367,0 -397.672,-203.45 -397.672,-413.083 0,-249.687 172.633,-428.488 468.57,-428.488 H 1387.22 C 1254.65,143 1023.45,10.4414 758.34,10.4414 339.086,10.4414 0,352.629 0,771.867 c 0,419.243 339.086,761.423 758.34,761.423 419.24,0 761.42,-342.18 761.42,-761.423 0,-83.222 -15.41,-163.379 -36.98,-237.363 H 635.027 v 83.242 l 299.008,9.238 c 151.065,6.172 218.885,83.223 218.885,203.457 v 0">
   </path>
   <path id="path16" style="fill:#ffffff;fill-opacity:1;fill-rule:nonzero;stroke:none" d="M 1327.97,72.3281 V 61.1914 h -18.83 V 9.41016 h -13.23 V 61.1914 H 1277 v 11.1367 h 50.97">
   </path>
   <path id="path18" style="fill:#ffffff;fill-opacity:1;fill-rule:nonzero;stroke:none" d="m 1377.41,72.3281 h 18.92 V 9.41016 h -12.25 V 51.9688 c 0,1.2226 0.01,2.9414 0.03,5.1523 0.03,2.1992 0.05,3.9102 0.05,5.0977 L 1372.23,9.41016 h -12.78 l -11.84,52.80864 c 0,-1.1875 0.02,-2.8985 0.04,-5.0977 0.03,-2.2109 0.05,-3.9297 0.05,-5.1523 V 9.41016 h -12.26 V 72.3281 h 19.14 l 11.45,-49.4765 11.38,49.4765">
   </path>
   <path id="path20" style="fill:#ffffff;fill-opacity:1;fill-rule:nonzero;stroke:none" d="m 2162.72,1155.39 c 0,43.39 -39.78,105.78 -116.63,105.78 -69.61,0 -116.62,-59.67 -116.62,-121.15 0,-73.23 50.63,-125.67 137.42,-125.67 h 164.54 c -38.87,-60.569 -106.68,-99.452 -184.43,-99.452 -122.96,0 -222.4,100.352 -222.4,223.312 0,122.96 99.44,223.31 222.4,223.31 122.95,0 223.31,-100.35 223.31,-223.31 0,-24.41 -4.53,-47.92 -10.86,-69.61 h -248.61 v 24.41 l 87.69,2.71 c 44.3,1.81 64.19,24.41 64.19,59.67 v 0">
   </path>
   <path id="path22" style="fill:#ffffff;fill-opacity:1;fill-rule:nonzero;stroke:none" d="m 2455.61,1223.19 84.98,124.77 h 117.53 l -144.64,-201.61 156.4,-217.881 H 2545.12 L 2452,1064.08 2357.98,928.469 h -117.54 l 153.7,212.451 -149.17,207.04 h 124.76 l 85.88,-124.77 v 0">
   </path>
   <path id="path24" style="fill:#ffffff;fill-opacity:1;fill-rule:nonzero;stroke:none" d="m 2911.26,1006.22 c 63.28,0 118.43,55.14 118.43,131.99 0,76.85 -55.15,132 -118.43,132 -62.38,0 -118.44,-55.15 -118.44,-132 0,-76.85 56.06,-131.99 118.44,-131.99 z m -112.11,259.47 c 30.74,65.09 85.89,94.02 141.94,94.02 101.26,0 193.48,-85.89 193.48,-221.5 0,-135.61 -92.22,-221.499 -193.48,-221.499 -56.05,0 -111.2,28.93 -141.94,94.019 -1.8,3.62 -4.52,2.72 -4.52,-0.9 V 755.793 h -108.49 v 592.167 h 108.49 v -81.37 c 0,-3.62 2.72,-4.52 4.52,-0.9 v 0">
   </path>
   <path id="path26" style="fill:#ffffff;fill-opacity:1;fill-rule:nonzero;stroke:none" d="m 3507.92,1155.39 c 0,43.39 -39.79,105.78 -116.63,105.78 -69.61,0 -116.63,-59.67 -116.63,-121.15 0,-73.23 50.63,-125.67 137.43,-125.67 h 164.54 c -38.88,-60.569 -106.68,-99.452 -184.44,-99.452 -122.95,0 -222.41,100.352 -222.41,223.312 0,122.96 99.46,223.31 222.41,223.31 122.95,0 223.31,-100.35 223.31,-223.31 0,-24.41 -4.52,-47.92 -10.85,-69.61 h -248.63 v 24.41 l 87.71,2.71 c 44.3,1.81 64.19,24.41 64.19,59.67 v 0">
   </path>
   <path id="path28" style="fill:#ffffff;fill-opacity:1;fill-rule:nonzero;stroke:none" d="m 3874.03,1270.21 c -63.28,0 -118.44,-55.15 -118.44,-132 0,-76.85 55.16,-131.99 118.44,-131.99 62.37,0 118.43,55.14 118.43,131.99 0,76.85 -56.06,132 -118.43,132 z m 112.11,-259.48 c -30.74,-65.089 -85.89,-94.019 -141.94,-94.019 -101.26,0 -193.48,85.889 -193.48,221.499 0,135.61 92.22,221.5 193.48,221.5 56.05,0 111.2,-28.93 141.94,-94.02 1.81,-3.62 4.52,-2.72 4.52,0.9 v 263.09 h 108.48 V 928.469 h -108.48 v 81.361 c 0,3.62 -2.71,4.52 -4.52,0.9 v 0">
   </path>
   <path id="path30" style="fill:#ffffff;fill-opacity:1;fill-rule:nonzero;stroke:none" d="M 4285.36,1347.96 V 928.469 h -108.5 v 419.491 h 108.5 z m -117.53,122.05 c 0,34.35 28.93,63.28 63.29,63.28 34.36,0 63.29,-28.93 63.29,-63.28 0,-34.36 -28.93,-63.29 -63.29,-63.29 -34.36,0 -63.29,28.93 -63.29,63.29 v 0">
   </path>
   <path id="path32" style="fill:#ffffff;fill-opacity:1;fill-rule:nonzero;stroke:none" d="m 4562.9,1270.21 c -63.29,0 -118.44,-55.15 -118.44,-132 0,-76.85 55.15,-131.99 118.44,-131.99 62.38,0 118.43,55.14 118.43,131.99 0,76.85 -56.05,132 -118.43,132 z M 4675,1010.73 c -30.74,-65.089 -85.88,-94.019 -141.94,-94.019 -101.26,0 -193.47,85.889 -193.47,221.499 0,135.61 92.21,221.5 193.47,221.5 56.06,0 111.2,-28.93 141.94,-94.02 1.81,-3.62 4.52,-2.72 4.52,0.9 v 81.37 h 108.49 V 928.469 h -108.49 v 81.361 c 0,3.62 -2.71,4.52 -4.52,0.9 v 0">
   </path>
   <path id="path34" style="fill:#ffffff;fill-opacity:1;fill-rule:nonzero;stroke:none" d="m 2083.72,524.371 c -62.38,0 -116.62,-54.25 -116.62,-130.191 0,-75.942 54.24,-130.192 116.62,-130.192 61.48,0 116.63,54.25 116.63,130.192 0,75.941 -55.15,130.191 -116.63,130.191 z m 114.83,-256.762 c 0,3.61 -2.72,4.52 -4.53,0.903 -30.74,-65.09 -84.98,-94.024 -140.13,-94.024 -100.36,0 -191.67,84.981 -191.67,219.692 0,134.699 91.31,219.687 191.67,219.687 55.15,0 109.39,-28.926 140.13,-94.015 1.81,-3.622 4.53,-2.723 4.53,0.898 v 81.371 h 108.48 V 207.039 C 2307.03,90.4102 2226.57,0 2087.34,0 2009.59,0 1941.78,27.1211 1892.06,73.2305 l 65.09,70.5195 c 43.4,-34.359 77.76,-52.4414 128.38,-52.4414 79.56,0 113.02,56.0504 113.02,125.6714 v 50.629 0">
   </path>
   <path id="path36" style="fill:#ffffff;fill-opacity:1;fill-rule:nonzero;stroke:none" d="m 2493.25,602.121 v -91.32 c 0,-1.813 1.81,-2.711 2.71,0 14.47,75.039 47.02,103.066 103.07,103.066 h 9.94 V 499.961 h -48.83 c -44.29,0 -66.89,-34.359 -66.89,-83.18 V 182.629 h -108.49 v 419.492 h 108.49 v 0">
   </path>
   <path id="path38" style="fill:#ffffff;fill-opacity:1;fill-rule:nonzero;stroke:none" d="m 2838.6,517.129 c -65.1,0 -118.44,-54.238 -118.44,-124.758 0,-70.519 53.34,-124.762 118.44,-124.762 65.1,0 118.43,54.243 118.43,124.762 0,70.52 -53.33,124.758 -118.43,124.758 z m 0.9,98.555 c 122.05,0 222.41,-100.356 222.41,-223.313 0,-122.961 -100.36,-223.312 -222.41,-223.312 -123.85,0 -224.21,100.351 -224.21,223.312 0,122.957 100.36,223.313 224.21,223.313 v 0">
   </path>
   <path id="path40" style="fill:#ffffff;fill-opacity:1;fill-rule:nonzero;stroke:none" d="m 3287,169.059 c -105.78,0 -173.59,64.191 -173.59,158.222 v 274.84 h 108.5 V 335.41 c 0,-41.582 27.12,-68.699 67.8,-68.699 37.07,0 65.1,28.019 65.1,67.801 v 267.609 h 108.49 v -274.84 c 0,-94.031 -73.23,-158.222 -176.3,-158.222 v 0">
   </path>
   <path id="path42" style="fill:#ffffff;fill-opacity:1;fill-rule:nonzero;stroke:none" d="m 3763.42,260.379 c 63.29,0 118.43,55.141 118.43,131.992 0,76.848 -55.14,132 -118.43,132 -62.38,0 -118.43,-55.152 -118.43,-132 0,-76.851 56.05,-131.992 118.43,-131.992 z m -112.1,259.473 c 30.74,65.089 85.89,94.015 141.94,94.015 101.26,0 193.47,-85.887 193.47,-221.496 0,-135.609 -92.21,-221.5 -193.47,-221.5 -56.05,0 -111.2,28.93 -141.94,94.027 -1.81,3.614 -4.52,2.711 -4.52,-0.91 V 9.94922 H 3538.31 V 602.121 H 3646.8 V 520.75 c 0,-3.621 2.71,-4.52 4.52,-0.898 v 0">
   </path>
   <path id="path44" style="fill:#ffffff;fill-opacity:1;fill-rule:nonzero;stroke:none" d="m 4098.62,602.609 v -11.152 h -18.84 v -51.816 h -13.24 v 51.816 h -18.92 v 11.152 h 51">
   </path>
   <path id="path46" style="fill:#ffffff;fill-opacity:1;fill-rule:nonzero;stroke:none" d="m 4148.08,602.609 h 18.93 v -62.968 h -12.26 v 42.586 c 0,1.23 0.01,2.941 0.04,5.148 0.03,2.207 0.05,3.914 0.05,5.105 l -11.93,-52.839 h -12.79 l -11.85,52.839 c 0,-1.191 0.02,-2.898 0.05,-5.105 0.02,-2.207 0.04,-3.918 0.04,-5.148 v -42.586 h -12.26 v 62.968 h 19.14 l 11.47,-49.511 11.37,49.511">
   </path>
  </g>
 </g>
</svg>